<svg width="70" height="40" viewBox="0 0 70 40" fill="none" xmlns="http://www.w3.org/2000/svg">
<rect width="70" height="40" rx="2" fill="white"/>
<g clip-path="url(#clip0_3881_51238)">
<path fill-rule="evenodd" clip-rule="evenodd" d="M38.1152 25.6841V18.9308H37.8298L35.4651 24.5967C35.3208 24.9202 35.0858 25.195 34.7887 25.388C34.4916 25.581 34.145 25.6838 33.7907 25.6841H30.6163V14.3133H34.3878V21.0654H34.6869L37.0755 15.3932L37.0944 15.3504C37.2447 15.0408 37.479 14.7797 37.7707 14.5969C38.0624 14.4142 38.3996 14.3172 38.7438 14.317H41.918V25.6841H38.1177H38.1152ZM24.3269 18.9308H24.0201L21.8327 25.6841H19.2279L17.0455 18.9308H16.7413V25.6841H13V14.3133H16.7413C17.2033 14.3078 17.6549 14.4501 18.0303 14.7195C18.4058 14.9888 18.6853 15.3711 18.8281 15.8105L20.3656 21.0666H20.6887L22.2287 15.8105C22.3726 15.3695 22.6539 14.9863 23.0315 14.7169C23.4091 14.4474 23.8631 14.3059 24.3269 14.3133H28.0681V25.6841H24.3269V18.9308ZM55.1948 21.2854C54.4303 21.7409 53.5479 21.9597 52.6591 21.914H48.2239V25.6854H44.4524V19.3594H56.9648C56.577 20.1612 55.9613 20.8307 55.1948 21.2841V21.2854Z" fill="#52B460"/>
<path fill-rule="evenodd" clip-rule="evenodd" d="M56.8982 18.1099H50.0946C46.9869 18.1099 44.4023 16.4668 43.8579 14.3108H52.6868C55.0628 14.3108 56.9888 15.7226 56.9888 17.4625C56.9889 17.6814 56.9584 17.8994 56.8982 18.1099V18.1099Z" fill="#1BA1D7"/>
</g>
<defs>
<clipPath id="clip0_3881_51238">
<rect width="44" height="11.3533" fill="white" transform="translate(13 14.3234)"/>
</clipPath>
</defs>
</svg>