<svg width="70" height="40" viewBox="0 0 70 40" fill="none" xmlns="http://www.w3.org/2000/svg">
<rect width="70" height="40" rx="2" fill="white"/>
<g clip-path="url(#clip0_3881_51228)">
<path fill-rule="evenodd" clip-rule="evenodd" d="M42.6414 24.6137C42.4795 23.7656 42.0414 22.9949 41.3955 22.4219C41.1719 22.2048 40.9182 22.0211 40.6422 21.8763C40.5015 21.7942 40.3542 21.7243 40.2016 21.6675C39.8089 21.4982 39.3808 21.4273 38.9545 21.4609C39.2867 21.3411 39.6411 21.2958 39.9927 21.3283C40.2922 21.3716 40.5872 21.4419 40.874 21.5383C41.1048 21.6663 41.3436 21.7967 41.5755 21.9282C42.0898 20.0984 41.9897 18.1504 41.2905 16.3829C40.7272 14.8847 39.8098 13.5449 38.6165 12.4781C37.4084 11.3419 35.9062 10.5667 34.2802 10.2401C33.3358 10.0558 32.3638 10.0645 31.4228 10.2655C30.6258 10.4763 29.8766 10.8381 29.2161 11.3314C28.6037 11.8258 28.0849 12.4259 27.6841 13.1033C27.5654 13.2673 27.4611 13.4414 27.3726 13.6235C27.293 13.8208 27.2031 14.01 27.1131 14.2003C26.6172 15.5474 26.4587 16.9954 26.6516 18.4178C26.7655 19.3051 27.0016 20.1723 27.353 20.9949C27.5422 21.3606 27.7141 21.7424 27.9229 22.0874C28.1301 22.4212 28.3557 22.7431 28.5989 23.0518C29.1157 23.6311 29.6997 24.1469 30.3384 24.5883C31.7989 25.5823 33.5074 26.1499 35.2723 26.2275C35.2737 26.1017 35.2469 25.9772 35.1939 25.863C35.1627 25.7373 35.1511 25.5954 35.1154 25.472C35.0819 25.1784 35.0819 24.8819 35.1154 24.5883L35.2458 24.7694L35.3761 24.9252C35.4441 25.0521 35.5213 25.1739 35.6068 25.2897C35.7792 25.5147 35.9801 25.7164 36.2044 25.8896C36.6514 26.2556 37.1502 26.5533 37.6845 26.7732C38.288 27.0269 38.9282 27.1827 39.5809 27.2346C40.2527 27.3216 40.9195 27.4429 41.5789 27.598C42.1588 27.7658 42.7167 28.0016 43.2412 28.3005C43.4928 28.4391 43.7355 28.5932 43.9679 28.762C44.09 28.8359 44.2035 28.9234 44.306 29.0227C44.4421 29.0769 44.5021 29.2061 44.6428 29.2534C45.055 29.6315 45.4376 30.0407 45.7872 30.4773C45.9532 30.7175 46.1006 30.9701 46.2279 31.2329C46.3224 31.3379 46.3501 31.5098 46.4355 31.6251L46.4955 31.8431L46.4608 32.067C46.2682 32.0946 46.3074 31.8904 46.2301 31.8062C46.1578 31.7096 46.0967 31.6051 46.0479 31.4947C45.7433 31.1729 45.4711 30.8223 45.1388 30.5316C44.8184 30.231 44.4708 29.9606 44.1006 29.724C43.3298 29.1834 42.4677 28.7864 41.5558 28.552C40.4833 28.2573 39.3678 28.1511 38.2589 28.2382C37.7372 28.2961 37.2233 28.4098 36.7258 28.5774C36.2031 28.6936 35.6743 28.7806 35.1419 28.8381C33.0543 28.9461 30.9711 28.5533 29.0661 27.6926C28.241 27.3249 27.4717 26.843 26.7808 26.261C26.4335 25.9874 26.1122 25.6824 25.8211 25.3497C25.5227 25.0233 25.2612 24.6651 25.0412 24.2814C24.7902 23.898 24.5648 23.4984 24.3664 23.0852C24.1817 22.6346 24.0276 22.1721 23.905 21.7009C23.7415 21.1943 23.637 20.6707 23.5935 20.1401C23.5843 19.9821 23.5139 19.6787 23.5151 19.4364L23.5416 19.358C23.5035 19.1079 23.5035 18.8536 23.5416 18.6035C23.5452 18.052 23.6059 17.5022 23.7227 16.9632C23.8139 16.4672 23.9443 15.9792 24.1126 15.5039C24.2672 15.0424 24.4714 14.6157 24.6571 14.1773C24.7828 13.9893 24.8775 13.7735 24.9951 13.5797C25.0943 13.3744 25.2431 13.2198 25.3331 13.003L25.5407 12.7446C25.5811 12.6292 25.6884 12.5784 25.7219 12.4573L25.9295 12.1966L26.1372 11.937C26.4475 11.6313 26.7243 11.2922 27.0461 10.9992C27.368 10.7062 27.7279 10.4339 28.0602 10.1409C28.2701 10.0406 28.4224 9.88019 28.63 9.77521C28.7881 9.63101 29.0188 9.55841 29.1756 9.4119C29.5876 9.18947 30.0112 8.98921 30.4446 8.81202C30.8825 8.61544 31.3339 8.4504 31.7954 8.31824C32.8514 8.02604 33.9453 7.89422 35.0405 7.92719H35.1177C37.0931 7.95782 39.0169 8.56222 40.6549 9.66678C42.1047 10.6371 43.2698 11.9762 44.0303 13.5463C44.7775 15.1359 45.1098 16.8889 44.9963 18.6416C44.8827 20.3944 44.3269 22.0898 43.3808 23.5697C43.2774 23.7631 43.1557 23.9462 43.0174 24.1165L42.8363 24.3749L42.7325 24.5064L42.7129 24.5398L42.6806 24.5583L42.6414 24.6137ZM42.0196 25.2908C41.7629 25.1015 41.5863 24.8228 41.5247 24.5099C41.4901 24.3912 41.4901 24.2651 41.5247 24.1465L41.5766 24.12H41.7128L41.842 24.1707C41.9938 24.3609 42.1006 24.5829 42.1546 24.8202V25.0751L42.0196 25.2908ZM39.7343 24.849H39.7655C39.8675 24.8593 39.9665 24.8897 40.0568 24.9384C40.1471 24.9871 40.2269 25.0532 40.2916 25.1328C40.4237 25.2945 40.4867 25.5018 40.4669 25.7096C40.4563 25.8285 40.4076 25.9409 40.328 26.0298C40.2483 26.1188 40.1421 26.1797 40.0251 26.2033C39.8877 26.2087 39.7512 26.1781 39.6294 26.1145C39.5067 26.0524 39.4028 25.9589 39.3283 25.8434C39.2525 25.7286 39.2072 25.5964 39.1968 25.4592C39.1873 25.3212 39.2131 25.1831 39.2718 25.0578L39.4794 24.894L39.7343 24.849Z" fill="#F78300"/>
</g>
<defs>
<clipPath id="clip0_3881_51228">
<rect width="23" height="24.1178" fill="white" transform="translate(23.5 7.94104)"/>
</clipPath>
</defs>
</svg>