<svg width="70" height="40" viewBox="0 0 70 40" fill="none" xmlns="http://www.w3.org/2000/svg">
<rect width="70" height="40" rx="2" fill="white"/>
<g clip-path="url(#clip0_3220_57030)">
<path d="M6.57848 16.6949C6.35318 16.7954 6.15223 17.0026 6.06698 17.2215C6.02436 17.334 6 18.3873 6 20.3164V23.2397H7.40053V21.4053H9.26383L9.75097 22.3225L10.232 23.2397H11.0419C11.4803 23.2397 11.8457 23.222 11.8457 23.2042C11.8457 23.1806 11.596 22.6953 11.2855 22.1272L10.7313 21.0857L10.8775 20.997C11.6995 20.4703 12.0649 19.4347 11.8457 18.2512C11.7056 17.5292 11.3464 17.0203 10.7922 16.7836C10.4817 16.6475 10.4269 16.6416 8.61837 16.6298C7.15696 16.6179 6.72462 16.6298 6.57848 16.6949ZM10.1102 18.0322C10.2077 18.0677 10.3051 18.1743 10.3599 18.3104C10.4756 18.5767 10.4878 19.2572 10.3843 19.4584C10.1224 19.9495 9.79969 20.0442 8.42352 20.0442H7.40053V17.9731H8.67318C9.37344 17.9731 10.0189 17.9967 10.1102 18.0322ZM13.916 16.6653C13.3132 16.8428 12.8808 17.2629 12.6982 17.837C12.552 18.2985 12.3937 19.3874 12.3937 19.914C12.3937 20.423 12.5398 21.4585 12.6677 21.8787C12.893 22.6066 13.2766 22.9794 13.983 23.1569C14.2875 23.2338 14.6102 23.2457 15.6454 23.2279C16.8328 23.2102 16.9545 23.1924 17.2529 23.0681C18.1115 22.6953 18.4829 21.7485 18.4829 19.9259C18.4769 18.0086 18.0932 17.0617 17.1859 16.7363C16.8632 16.6238 16.7232 16.612 15.4505 16.6179C14.6893 16.6179 14.0013 16.6416 13.916 16.6653ZM16.7475 18.1092C17.1555 18.6536 17.1494 21.3343 16.7353 21.7308C16.6135 21.855 14.2692 21.8609 14.1657 21.7426C13.8795 21.4053 13.776 19.4584 13.9952 18.5471C14.0865 18.1861 14.1352 18.0737 14.2387 18.0322C14.3118 18.0026 14.8903 17.9849 15.5175 17.9908C16.5466 18.0026 16.6744 18.0145 16.7475 18.1092ZM19.7982 16.7422C19.6643 16.8191 19.4998 16.973 19.4329 17.0854C19.3111 17.2866 19.305 17.3931 19.2867 19.7602C19.2745 21.4112 19.2928 22.3048 19.3354 22.4705C19.439 22.8373 19.7069 23.1036 20.0722 23.1747C20.4498 23.2575 23.1351 23.2575 23.6162 23.1806C24.5539 23.0326 25.035 22.5 25.1019 21.5236C25.1446 20.9733 25.0532 20.565 24.8158 20.1981L24.6392 19.9318L24.8645 19.5057C25.0837 19.0974 25.0898 19.056 25.0898 18.482C25.0898 17.9908 25.0593 17.831 24.9497 17.5884C24.7731 17.2156 24.56 16.9966 24.1764 16.8014L23.8719 16.6416L21.9538 16.6238C20.054 16.612 20.0357 16.612 19.7982 16.7422ZM23.5675 18.0441C23.6527 18.1269 23.7075 18.5234 23.6527 18.7068C23.6223 18.8134 23.5248 18.9613 23.4396 19.0441C23.2874 19.1862 23.263 19.1862 22.0086 19.2039L20.736 19.2217V17.9671L22.1304 17.9849C22.8976 17.9967 23.5431 18.0204 23.5675 18.0441ZM23.2995 20.6833C23.5431 20.778 23.6771 21.0325 23.671 21.3698C23.6649 21.5828 23.6344 21.6893 23.5614 21.7426C23.4822 21.8018 23.0986 21.8195 22.0939 21.8195H20.736V20.565L21.9416 20.5886C22.5993 20.6064 23.2143 20.6478 23.2995 20.6833ZM27.1418 16.7363C26.5512 16.9611 26.2528 17.3635 26.0214 18.2512C25.9057 18.7009 25.8875 18.9376 25.8875 19.9259C25.8875 21.0029 25.8996 21.1212 26.0519 21.6716C26.2406 22.3403 26.4172 22.6302 26.7704 22.8847C27.2088 23.1865 27.3428 23.2102 28.8955 23.2102C30.4483 23.2102 30.5823 23.1865 31.0207 22.8847C31.3739 22.6302 31.5505 22.3403 31.7392 21.6716C31.8915 21.1212 31.9036 21.0029 31.9036 19.9259C31.9036 18.9376 31.8854 18.7009 31.7697 18.2512C31.5383 17.3517 31.2399 16.9552 30.631 16.7363C30.3204 16.6238 30.1682 16.612 28.8773 16.6179C27.6046 16.6179 27.4341 16.6298 27.1418 16.7363ZM30.0769 18.0322C30.2413 18.0914 30.3143 18.2749 30.43 18.9435C30.5762 19.7661 30.4483 21.3165 30.2047 21.6775C30.1134 21.8195 30.1073 21.8195 28.8955 21.8195C27.4707 21.8195 27.5559 21.8609 27.3976 21.0739C27.1723 19.9851 27.355 18.1683 27.696 18.0322C27.8786 17.9612 29.882 17.9612 30.0769 18.0322Z" fill="#266BB2"/>
<path d="M33.0423 16.8586L32.8535 17.042V22.9004L33.0301 23.0721C33.1885 23.22 33.2554 23.2437 33.566 23.2437C33.8644 23.2437 33.9496 23.22 34.0592 23.1076C34.2723 22.8886 34.315 22.6342 34.315 21.6045V20.6399H35.2101L35.6607 21.0186C36.5619 21.7702 36.8724 22.1726 36.8724 22.575C36.8724 22.7998 36.9029 22.8709 37.0795 23.0425C37.2622 23.22 37.323 23.2437 37.5971 23.2437C37.8528 23.2437 37.9381 23.2141 38.1025 23.0721C38.2973 22.9064 38.3034 22.8827 38.2973 22.4507C38.2912 22.0779 38.2608 21.9418 38.1025 21.6282C37.8893 21.2139 37.2682 20.4742 36.8785 20.1724L36.6228 19.9771L37.0186 19.628C37.4935 19.2019 37.932 18.6516 38.139 18.2196C38.2547 17.9711 38.2912 17.7935 38.2973 17.4621C38.3034 17.0361 38.2973 17.0124 38.1025 16.8467C37.9259 16.6929 37.8589 16.6751 37.5179 16.6751C37.1647 16.6751 37.1099 16.6929 37.0003 16.829C36.9151 16.9355 36.8724 17.0716 36.8724 17.2491C36.8724 17.3911 36.8359 17.5923 36.7872 17.6989C36.6837 17.9474 36.2209 18.4386 35.6607 18.906L35.2101 19.2789H34.315V18.3143C34.315 17.7876 34.2845 17.255 34.2541 17.1367C34.1627 16.8171 33.9435 16.6751 33.5477 16.6751C33.2737 16.6751 33.2006 16.6988 33.0423 16.8586ZM40.7939 16.758C39.9719 17.0124 39.5213 17.5805 39.2046 18.7404C39.0585 19.2611 39.0463 19.4386 39.0219 20.9417C38.9854 22.717 39.0098 22.9123 39.2899 23.1253C39.4908 23.2792 40.0084 23.2851 40.1972 23.1372C40.4164 22.9655 40.4651 22.7998 40.4651 22.1844V21.5867H43.6315V22.2436C43.6315 22.8886 43.6315 22.9004 43.8081 23.0721C43.9664 23.22 44.0334 23.2437 44.3318 23.2437C44.6423 23.2437 44.6971 23.2259 44.8615 23.0543L45.0381 22.8649L45.0198 20.9713C44.9955 19.2197 44.9833 19.0362 44.8615 18.6398C44.5692 17.7048 44.143 17.1189 43.5706 16.8586C43.254 16.7165 43.1687 16.7047 42.1396 16.6929C41.3602 16.681 40.9705 16.6988 40.7939 16.758ZM42.8947 18.1013C43.2296 18.2137 43.5158 18.9297 43.595 19.8233L43.6254 20.2257H40.4468L40.4895 19.7523C40.5625 18.9179 40.8974 18.1368 41.208 18.0776C41.5064 18.0243 42.712 18.0421 42.8947 18.1013ZM46.9501 16.758C46.3534 16.9414 46.0185 17.2254 45.8115 17.7403C45.7079 18.0007 45.6775 18.19 45.6775 18.6575C45.6775 19.6043 45.9698 20.1428 46.6579 20.4683C46.9319 20.5985 47.0415 20.6103 48.2411 20.6399C49.4833 20.6695 49.5381 20.6754 49.672 20.8056C49.8486 20.9772 49.8669 21.4802 49.7025 21.7228L49.599 21.8826H47.961C46.4143 21.8826 46.3169 21.8885 46.1707 22.001C45.8297 22.2613 45.8175 22.8294 46.1403 23.0957L46.3229 23.2437H48.0949C49.0814 23.2437 49.9704 23.2141 50.0922 23.1845C50.4271 23.0957 50.7864 22.7525 51.0117 22.3087C51.2004 21.9359 51.2126 21.8826 51.2126 21.2613C51.2126 20.6813 51.1943 20.5748 51.0543 20.2849C50.8533 19.8706 50.5793 19.5629 50.281 19.4209C50.0861 19.3262 49.8608 19.3025 48.6673 19.2789C47.0537 19.2434 47.1024 19.267 47.1024 18.6575C47.1024 18.0421 47.011 18.0717 48.9535 18.0362L50.6341 18.0066L50.7985 17.8468C50.9447 17.7048 50.9629 17.6338 50.9873 17.184L51.0178 16.6751L49.1057 16.681C47.7417 16.681 47.1267 16.7047 46.9501 16.758ZM52.9785 16.758C52.8445 16.7994 52.6558 16.8763 52.5522 16.9236C51.7667 17.326 51.4379 18.6753 51.8885 19.6339C52.0773 20.0363 52.2843 20.2494 52.674 20.4505C52.9663 20.6044 53.015 20.6103 54.1963 20.6281C54.8662 20.634 55.4873 20.6754 55.5786 20.705C55.7917 20.7879 55.8952 21.0897 55.8404 21.4447C55.7734 21.8945 55.8222 21.8826 53.9771 21.8826H52.3269L52.1504 22.0542C51.9981 22.2081 51.9738 22.2732 51.9738 22.5631C51.9738 22.8531 51.9981 22.9182 52.1504 23.0721L52.3269 23.2437H54.1659C56.2119 23.2437 56.2606 23.2378 56.6868 22.8413C57.0583 22.4921 57.2288 22.0779 57.2592 21.3974C57.2958 20.6103 57.1435 20.1488 56.6929 19.7168C56.492 19.5215 56.291 19.3854 56.1388 19.344C56.0048 19.3084 55.3959 19.2789 54.7687 19.2789C54.1415 19.2789 53.5509 19.2611 53.4474 19.2434C53.2281 19.2019 53.1307 19.0185 53.1307 18.6575C53.1307 18.2965 53.2281 18.1131 53.4474 18.0717C53.5509 18.0539 54.2877 18.0362 55.0915 18.0362C56.9852 18.0362 57.0278 18.0125 57.0278 17.1189V16.6751L55.128 16.681C53.7701 16.681 53.149 16.7047 52.9785 16.758ZM59.6523 16.7935C59.4757 16.8526 59.2321 16.9769 59.1164 17.0657C58.6293 17.4266 58.1909 18.3735 58.0691 19.338C57.9778 20.0126 57.9838 22.6401 58.0691 22.8827C58.1543 23.1135 58.3979 23.2437 58.7572 23.2437C58.9764 23.2437 59.0738 23.2082 59.2321 23.0721L59.4331 22.9004L59.4513 22.2436L59.4757 21.5867H62.5569L62.5812 22.2436L62.5995 22.9004L62.8004 23.0721C62.9588 23.2141 63.0501 23.2437 63.2997 23.2437C63.5494 23.2437 63.6407 23.2141 63.7991 23.0721L64 22.9004L63.9939 21.0423C63.9878 19.344 63.9817 19.1546 63.86 18.7285C63.5859 17.7521 63.178 17.1603 62.5873 16.8763C62.2402 16.7106 62.2098 16.7047 61.1076 16.6929C60.1151 16.6751 59.9446 16.6869 59.6523 16.7935ZM62.088 18.2729C62.3316 18.551 62.5142 19.1428 62.5508 19.7345L62.5873 20.2257H59.4635V19.8647C59.4635 19.1132 59.8045 18.2374 60.1455 18.0953C60.2247 18.0657 60.6509 18.048 61.1015 18.0539L61.9114 18.0657L62.088 18.2729Z" fill="#CF1D2E"/>
</g>
<defs>
<clipPath id="clip0_3220_57030">
<rect width="58" height="6.76667" fill="white" transform="translate(6 16.6167)"/>
</clipPath>
</defs>
</svg>