<svg width="70" height="40" viewBox="0 0 70 40" fill="none" xmlns="http://www.w3.org/2000/svg">
<rect width="70" height="40" rx="2" fill="white"/>
<g clip-path="url(#clip0_3881_51232)">
<path fill-rule="evenodd" clip-rule="evenodd" d="M45.8052 18.0207L43.667 19.693V19.7305C43.667 19.8171 43.667 19.9037 43.667 19.9903C43.6652 21.4457 43.2924 22.8765 42.5838 24.1478C41.8752 25.419 40.8543 26.4886 39.6174 27.2556C40.0333 27.909 40.355 28.6177 40.5731 29.3608C42.2155 28.4085 43.5792 27.0418 44.528 25.3975C45.4769 23.7532 45.9778 21.8887 45.9806 19.9903V19.9732V19.955C45.9782 19.3054 45.9179 18.6573 45.8006 18.0184" fill="#62BC70"/>
<path fill-rule="evenodd" clip-rule="evenodd" d="M30.1023 27.0802C29.7629 27.7735 29.3067 28.4031 28.7535 28.9415C30.4838 30.1205 32.5126 30.7856 34.6051 30.8598C36.6975 30.9339 38.7683 30.4143 40.5777 29.3608C40.3596 28.6177 40.0378 27.909 39.622 27.2556C38.1875 28.1482 36.5255 28.6066 34.8362 28.5755C33.147 28.5444 31.5029 28.0251 30.1023 27.0802" fill="#9EF966"/>
<path fill-rule="evenodd" clip-rule="evenodd" d="M24.3018 17.4852C23.7943 19.621 23.9484 21.8605 24.7435 23.9067C25.5386 25.9528 26.9371 27.7088 28.7535 28.9415C29.3066 28.4031 29.7629 27.7734 30.1023 27.0802C28.6521 26.1062 27.5354 24.7111 26.9026 23.0828C26.2697 21.4546 26.1512 19.6716 26.563 17.9739C25.8428 17.6827 25.078 17.5174 24.3018 17.4852" fill="#E7FB5C"/>
<path fill-rule="evenodd" clip-rule="evenodd" d="M30.8542 9.90784C29.2378 10.5571 27.7999 11.583 26.6602 12.9002C25.5205 14.2174 24.712 15.7879 24.3019 17.4808C25.078 17.513 25.8429 17.6783 26.563 17.9695C26.9162 16.5423 27.6277 15.2289 28.6301 14.1535C29.6326 13.0781 30.8929 12.2762 32.2917 11.8239C31.9068 11.1196 31.4227 10.4743 30.8542 9.90784" fill="#5AEEEF"/>
<path fill-rule="evenodd" clip-rule="evenodd" d="M34.9971 9.11047C33.5777 9.1081 32.1712 9.37883 30.8541 9.90788C31.4227 10.4743 31.9068 11.1196 32.2917 11.8239C33.5327 11.4225 34.8477 11.3031 36.1408 11.4741C37.4339 11.6452 38.6726 12.1024 39.7666 12.8126L41.6553 11.3318C39.738 9.88389 37.3997 9.10295 34.9971 9.10818" fill="#49ABD9"/>
<path fill-rule="evenodd" clip-rule="evenodd" d="M34.9971 22.8519L44.8847 15.2391C44.548 14.5562 44.141 13.9102 43.6704 13.3116L34.9971 19.9904V19.9902L30.9486 17.4841V20.3319V20.3387L34.9971 22.8516V22.8519Z" fill="#23A136"/>
</g>
<defs>
<clipPath id="clip0_3881_51232">
<rect width="22" height="21.7494" fill="white" transform="translate(24 9.12524)"/>
</clipPath>
</defs>
</svg>