<svg width="70" height="40" viewBox="0 0 70 40" fill="none" xmlns="http://www.w3.org/2000/svg">
<rect width="70" height="40" rx="2" fill="white"/>
<g clip-path="url(#clip0_3881_51254)">
<path fill-rule="evenodd" clip-rule="evenodd" d="M12.2965 23.5371V18.3243H15.3497V16.4273H7.00885V18.3243H10.0711V23.5371H12.2965V23.5371ZM18.4741 16.4273H16.2398V23.5371H18.4741V16.4273ZM20.1032 16.4273V23.5371H22.1505V19.6088L25.9693 23.5371H27.8654V16.4273H25.8179V20.3263L22.0882 16.4273H20.1032ZM32.2449 20.8488L34.8085 23.5371H37.6749L34.0965 19.8331L37.5414 16.4273H34.8442L32.2449 19.0978H31.6485V16.4273H29.4943V23.5371H31.6485V20.8488H32.2449ZM42.1079 16.2333C39.206 16.2333 37.4701 17.8765 37.4701 19.9978C37.4701 22.119 39.206 23.7614 42.1079 23.7614C44.9831 23.7614 46.7189 22.1181 46.7189 19.9978C46.7189 17.8774 44.9831 16.2333 42.1079 16.2333V16.2333ZM42.1079 22.0291C41.7212 21.9696 41.3596 21.8005 41.066 21.5418C40.7724 21.2831 40.5591 20.9458 40.4513 20.5696C40.3435 20.1935 40.3457 19.7943 40.4578 19.4194C40.5698 19.0445 40.787 18.7095 41.0835 18.4542C41.38 18.1988 41.7435 18.0338 42.1309 17.9787C42.5182 17.9235 42.9133 17.9805 43.2693 18.1429C43.6253 18.3053 43.9272 18.5664 44.1395 18.8951C44.3517 19.2238 44.4654 19.6065 44.4669 19.9978C44.4586 20.2906 44.3893 20.5785 44.2635 20.8431C44.1376 21.1077 43.9579 21.3431 43.7359 21.5343C43.5139 21.7254 43.2544 21.8682 42.9741 21.9534C42.6938 22.0386 42.3988 22.0644 42.1079 22.0291V22.0291ZM54.8906 16.4273H47.7426V23.5371H49.8968V21.0579H54.5791V19.4895H49.8968V18.2353H54.8906V16.4273V16.4273ZM62.9911 16.4273H55.852V23.5371H58.0062V21.0579H62.6795V19.4895H58.0062V18.2353H62.9911V16.4273V16.4273Z" fill="#333333"/>
</g>
<defs>
<clipPath id="clip0_3881_51254">
<rect width="56" height="7.51028" fill="white" transform="translate(7 16.2449)"/>
</clipPath>
</defs>
</svg>