<svg>
  <symbol id="icon_shop_compare" xmlns="http://www.w3.org/2000/svg"><path fill-rule="evenodd" clip-rule="evenodd" d="M9.666 4c-1.697 0-3.132.605-4.14 1.686C4.524 6.761 4 8.246 4 9.916v10.168c0 1.668.521 3.154 1.522 4.23C6.53 25.393 7.966 26 9.666 26h10.668c1.7 0 3.137-.605 4.143-1.687C25.48 23.238 26 21.753 26 20.083V9.917c0-1.668-.521-3.154-1.523-4.23C23.471 4.607 22.035 4 20.334 4H9.666zM5.5 9.916c0-1.358.423-2.456 1.123-3.207C7.318 5.964 8.341 5.5 9.666 5.5h10.668c1.33 0 2.352.464 3.046 1.209.699.75 1.12 1.848 1.12 3.207v10.168c0 1.359-.421 2.456-1.12 3.207-.694.745-1.716 1.209-3.046 1.209H9.666c-1.33 0-2.352-.464-3.046-1.209-.699-.75-1.12-1.848-1.12-3.207V9.916zM15.75 10a.75.75 0 00-1.5 0v10a.75.75 0 001.5 0V10zm-4.25 3.14a.75.75 0 00-1.5 0V20a.75.75 0 001.5 0v-6.86zm7.75 2.875a.75.75 0 01.75.75V20a.75.75 0 01-1.5 0v-3.235a.75.75 0 01.75-.75z"></path></symbol>
  <symbol id="icon_shop_favorite" xmlns="http://www.w3.org/2000/svg"><path fill-rule="evenodd" clip-rule="evenodd" d="M21.665 7.042c-2.568-1.284-4.724-.05-6.135 1.36a.75.75 0 01-1.06 0c-1.41-1.41-3.567-2.644-6.135-1.36-1.47.733-2.301 1.801-2.661 3.069-.367 1.29-.262 2.856.288 4.573 1.443 4.165 5.206 7.327 9.037 9.684 3.828-2.431 7.585-5.489 9.04-9.684.549-1.717.654-3.28.288-4.571-.36-1.267-1.191-2.335-2.662-3.07zM15 6.848c1.651-1.424 4.257-2.687 7.335-1.147 1.83.915 2.955 2.311 3.435 4.002.473 1.665.303 3.548-.306 5.447l-.005.016c-1.685 4.872-6.066 8.231-10.056 10.72a.75.75 0 01-.784.007c-4.03-2.421-8.406-5.89-10.078-10.727l-.005-.016c-.61-1.9-.778-3.783-.305-5.45.48-1.69 1.604-3.088 3.435-4 3.078-1.538 5.683-.275 7.334 1.148zm3.4 2.607a.75.75 0 01.967-.435c1.468.557 2.415 2.066 2.532 3.723a.75.75 0 01-1.496.106c-.085-1.2-.757-2.119-1.568-2.426a.75.75 0 01-.435-.968z"></path></symbol>
  <symbol id="icon_shop_cart" xmlns="http://www.w3.org/2000/svg"><path fill-rule="evenodd" clip-rule="evenodd" d="M2.018 3.587a.75.75 0 01.895-.569l1.992.443c.45.1.796.458.88.91l.494 2.63h16.934a2.75 2.75 0 012.674 3.39L23.94 18.51A3.25 3.25 0 0120.78 21H10.075a3.25 3.25 0 01-3.194-2.65L4.354 4.874l-1.767-.393a.75.75 0 01-.57-.895zM6.56 8.5l1.795 9.573a1.75 1.75 0 001.72 1.427h10.704a1.75 1.75 0 001.702-1.341l1.948-8.117A1.25 1.25 0 0023.213 8.5H6.56zM9.5 23a1.5 1.5 0 10.001 3 1.5 1.5 0 00-.001-3zM21 23a1.501 1.501 0 10.002 3.002A1.501 1.501 0 0021 23zm-2-12.25a.75.75 0 100 1.5h2.5a.75.75 0 100-1.5H19z"></path></symbol>
  <symbol viewBox="0 0 30 30" id="icon_shop_cabinet" xmlns="http://www.w3.org/2000/svg"><path d="M20.044 24.892l.202.722-.202-.723zm-10.088 0l-.202.722.202-.723zM24.246 21l.75.039v-.003l-.75-.036zM5.754 21l-.75.036.001.003.75-.039zM18.75 9.25A3.75 3.75 0 0115 13v1.5c2.9 0 5.25-2.35 5.25-5.25h-1.5zM15 5.5a3.75 3.75 0 013.75 3.75h1.5C20.25 6.35 17.9 4 15 4v1.5zm-3.75 3.75A3.75 3.75 0 0115 5.5V4a5.25 5.25 0 00-5.25 5.25h1.5zM15 13a3.75 3.75 0 01-3.75-3.75h-1.5c0 2.9 2.35 5.25 5.25 5.25V13zm4.842 11.17c-1.315.367-3.064.56-4.842.56-1.778 0-3.527-.192-4.842-.56l-.404 1.444c1.487.416 3.381.616 5.246.616 1.865 0 3.759-.2 5.246-.616l-.404-1.445zm3.656-3.208c-.041.798-.314 1.385-.846 1.872-.562.514-1.456.956-2.81 1.335l.404 1.445c1.448-.406 2.605-.928 3.419-1.674.844-.772 1.271-1.739 1.33-2.901l-1.497-.077zm-16.996.002c-.046-.977.69-1.88 2.353-2.582 1.622-.684 3.861-1.044 6.145-1.044 2.284 0 4.523.36 6.145 1.044 1.663.702 2.4 1.605 2.353 2.582l1.498.072c.094-1.964-1.447-3.267-3.268-4.036-1.864-.786-4.318-1.162-6.728-1.162s-4.864.376-6.728 1.162c-1.821.769-3.362 2.072-3.268 4.036l1.498-.072zm3.656 3.205c-1.354-.379-2.249-.82-2.81-1.335-.532-.486-.805-1.072-.846-1.872l-1.498.077c.06 1.163.487 2.13 1.331 2.902.815.745 1.971 1.267 3.419 1.673l.404-1.445z"></path></symbol>
</svg>
