<svg>
  <symbol id="icon_shop_filter" xmlns="http://www.w3.org/2000/svg"><path fill-rule="evenodd" clip-rule="evenodd" d="M5 9.75a3.5 3.5 0 117 0 3.5 3.5 0 01-7 0zm3.5-2a2 2 0 100 4 2 2 0 000-4zm7 2a.75.75 0 01.75-.75h8a.75.75 0 010 1.5h-8a.75.75 0 01-.75-.75zm6 8.25a2 2 0 10-.001 3.999A2 2 0 0021.5 18zM18 20a3.5 3.5 0 117 0 3.5 3.5 0 11-7 0zm-12.975.25a.75.75 0 01.75-.75h8a.75.75 0 010 1.5h-8a.75.75 0 01-.75-.75z"></path></symbol>
  <symbol id="icon_shop_sort" xmlns="http://www.w3.org/2000/svg"><path fill-rule="evenodd" clip-rule="evenodd" d="M9.922 6c.2 0 .391.08.532.22l4.171 4.191a.75.75 0 01-1.063 1.059l-2.89-2.904V20.68a.75.75 0 01-1.5 0V8.567l-2.89 2.902a.75.75 0 11-1.062-1.058l4.17-4.19A.75.75 0 019.923 6zm10.156 2.57a.75.75 0 01.75.75v12.113l2.89-2.903a.75.75 0 111.062 1.059l-4.17 4.19a.75.75 0 01-1.064 0l-4.17-4.19a.75.75 0 111.062-1.059l2.89 2.903V9.32a.75.75 0 01.75-.75z"></path></symbol>
</svg>
