<svg>
  <symbol viewBox="0 0 30 30" id="icon_shop_compare_add" xmlns="http://www.w3.org/2000/svg"><path fill-rule="evenodd" clip-rule="evenodd" d="M9.666 4c-1.697 0-3.132.605-4.14 1.686C4.524 6.761 4 8.246 4 9.916v10.168c0 1.668.521 3.154 1.522 4.23C6.53 25.393 7.966 26 9.666 26h10.668c1.7 0 3.137-.605 4.143-1.687C25.48 23.238 26 21.753 26 20.083V9.917c0-1.668-.521-3.154-1.523-4.23C23.471 4.607 22.035 4 20.334 4H9.666zM5.5 9.916c0-1.358.423-2.456 1.123-3.207C7.318 5.964 8.341 5.5 9.666 5.5h10.668c1.33 0 2.352.464 3.046 1.209.699.75 1.12 1.848 1.12 3.207v10.168c0 1.359-.421 2.456-1.12 3.207-.694.745-1.716 1.209-3.046 1.209H9.666c-1.33 0-2.352-.464-3.046-1.209-.699-.75-1.12-1.848-1.12-3.207V9.916zm9.498.084a.75.75 0 01.75.75v3.499h3.5a.75.75 0 110 1.5h-3.5v3.498a.75.75 0 01-1.5 0V15.75H10.75a.75.75 0 010-1.5h3.498v-3.5a.75.75 0 01.75-.75z"></path></symbol>
  <symbol viewBox="0 0 30 30" id="icon_shop_compare_added" xmlns="http://www.w3.org/2000/svg"><path fill-rule="evenodd" clip-rule="evenodd" d="M9.666 4c-1.697 0-3.132.605-4.14 1.686C4.524 6.761 4 8.246 4 9.916v10.168c0 1.668.521 3.154 1.522 4.23C6.53 25.393 7.966 26 9.666 26h10.668c1.7 0 3.137-.605 4.143-1.687C25.48 23.238 26 21.753 26 20.083V9.917c0-1.668-.521-3.154-1.523-4.23C23.471 4.607 22.035 4 20.334 4H9.666zM5.5 9.916c0-1.358.423-2.456 1.123-3.207C7.318 5.964 8.341 5.5 9.666 5.5h10.668c1.33 0 2.352.464 3.046 1.209.699.75 1.12 1.848 1.12 3.207v10.168c0 1.359-.421 2.456-1.12 3.207-.694.745-1.716 1.209-3.046 1.209H9.666c-1.33 0-2.352-.464-3.046-1.209-.699-.75-1.12-1.848-1.12-3.207V9.916zM15.75 10a.75.75 0 00-1.5 0v10a.75.75 0 001.5 0V10zm-4.25 3.14a.75.75 0 00-1.5 0V20a.75.75 0 001.5 0v-6.86zm7.75 2.875a.75.75 0 01.75.75V20a.75.75 0 01-1.5 0v-3.235a.75.75 0 01.75-.75z"></path></symbol>
  <symbol viewBox="0 0 30 30" id="icon_shop_favorite_add" xmlns="http://www.w3.org/2000/svg"><path fill-rule="evenodd" clip-rule="evenodd" d="M21.665 7.042c-2.568-1.284-4.724-.05-6.135 1.36a.75.75 0 01-1.06 0c-1.41-1.41-3.567-2.644-6.135-1.36-1.47.733-2.301 1.801-2.661 3.069-.367 1.29-.262 2.856.288 4.573 1.443 4.165 5.206 7.327 9.037 9.684 3.828-2.431 7.585-5.489 9.04-9.684.549-1.717.654-3.28.288-4.571-.36-1.267-1.191-2.335-2.662-3.07zM15 6.848c1.651-1.424 4.257-2.687 7.335-1.147 1.83.915 2.955 2.311 3.435 4.002.473 1.665.303 3.548-.306 5.447l-.005.016c-1.685 4.872-6.066 8.231-10.056 10.72a.75.75 0 01-.784.007c-4.03-2.421-8.406-5.89-10.078-10.727l-.005-.016c-.61-1.9-.778-3.783-.305-5.45.48-1.69 1.604-3.088 3.435-4 3.078-1.538 5.683-.275 7.334 1.148zm3.4 2.607a.75.75 0 01.967-.435c1.468.557 2.415 2.066 2.532 3.723a.75.75 0 01-1.496.106c-.085-1.2-.757-2.119-1.568-2.426a.75.75 0 01-.435-.968z"></path></symbol>
  <symbol viewBox="0 0 30 30" id="icon_shop_favorite_added" xmlns="http://www.w3.org/2000/svg"><path fill-rule="evenodd" clip-rule="evenodd" d="M22.307 5.7C19.241 4.168 16.645 5.427 15 6.845 13.355 5.426 10.76 4.168 7.693 5.7 5.87 6.61 4.75 8 4.271 9.686c-.47 1.66-.302 3.537.304 5.429l.006.015c1.666 4.818 6.024 8.275 10.04 10.687.24.144.542.142.78-.007 3.975-2.48 8.34-5.826 10.018-10.68l.005-.015c.607-1.892.776-3.768.305-5.427-.479-1.684-1.598-3.076-3.422-3.987zm-2.6 3.49a.75.75 0 10-.392 1.448c.801.217 1.344 1.012.973 2.125a.75.75 0 001.424.474c.629-1.887-.328-3.592-2.005-4.047z"></path></symbol>
</svg>
