<svg>
  <symbol id="icon_shop_sort_desc" xmlns="http://www.w3.org/2000/svg"><path fill-rule="evenodd" clip-rule="evenodd" d="M23.477 6.687C22.47 5.605 21.034 5 19.334 5h-8.669c-1.7 0-3.136.605-4.143 1.687C5.522 7.762 5 9.247 5 10.916v8.168c0 1.67.524 3.155 1.526 4.23C7.534 24.394 8.97 25 10.665 25h8.669c1.7 0 3.136-.605 4.143-1.687C24.48 22.238 25 20.753 25 19.084v-8.168c0-1.668-.521-3.154-1.523-4.23zM22.38 7.709c.7.75 1.121 1.848 1.121 3.207v8.168c0 1.359-.422 2.456-1.12 3.207-.694.745-1.716 1.209-3.046 1.209h-8.669c-1.324 0-2.346-.464-3.041-1.21-.7-.75-1.124-1.848-1.124-3.206v-8.168c0-1.359.421-2.456 1.12-3.207.693-.745 1.715-1.209 3.045-1.209h8.669c1.33 0 2.352.464 3.045 1.209zM15 10.164a.75.75 0 00-.75.75v6.356l-2.467-2.477a.75.75 0 10-1.063 1.059l3.748 3.764a.75.75 0 001.063 0l3.748-3.764a.75.75 0 10-1.063-1.059L15.75 17.27v-6.356a.75.75 0 00-.75-.75z"></path></symbol>
  <symbol id="icon_shop_sort_asc" xmlns="http://www.w3.org/2000/svg"><path fill-rule="evenodd" clip-rule="evenodd" d="M23.477 23.313C22.47 24.395 21.034 25 19.334 25h-8.669c-1.7 0-3.136-.605-4.143-1.687-1-1.075-1.522-2.56-1.522-4.229v-8.168c0-1.67.524-3.155 1.526-4.23C7.534 5.606 8.97 5 10.665 5h8.669c1.7 0 3.136.605 4.143 1.687C24.48 7.762 25 9.247 25 10.916v8.168c0 1.668-.521 3.154-1.523 4.23zm-1.098-1.022c.7-.75 1.121-1.848 1.121-3.207v-8.168c0-1.359-.422-2.456-1.12-3.207-.694-.745-1.716-1.209-3.046-1.209h-8.669c-1.324 0-2.346.464-3.041 1.21-.7.75-1.124 1.848-1.124 3.206v8.168c0 1.359.421 2.456 1.12 3.207.693.745 1.715 1.209 3.045 1.209h8.669c1.33 0 2.352-.464 3.045-1.209zM15 19.836a.75.75 0 01-.75-.75V12.73l-2.467 2.477a.75.75 0 11-1.063-1.059l3.748-3.764a.75.75 0 011.063 0l3.748 3.764a.75.75 0 11-1.063 1.059L15.75 12.73v6.356a.75.75 0 01-.75.75z"></path></symbol>
</svg>
