<svg>
  <symbol id="icon_site_catalog" xmlns="http://www.w3.org/2000/svg"><path fill-rule="evenodd" clip-rule="evenodd" d="M4.75 7a.75.75 0 000 1.5h20.5a.75.75 0 000-1.5H4.75zm0 7a.75.75 0 000 1.5h6.531a.75.75 0 100-1.5H4.75zM4 22.25a.75.75 0 01.75-.75h5.531a.75.75 0 110 1.5H4.75a.75.75 0 01-.75-.75zm17-8.75a5.5 5.5 0 100 11 5.5 5.5 0 000-11zM14 19a7 7 0 1112.447 4.397.711.711 0 01.083.073l2 2a.75.75 0 01-1.06 1.06l-2-2a.756.756 0 01-.073-.083A7 7 0 0114 19z"></path></symbol>
  <symbol id="icon_site_burger" xmlns="http://www.w3.org/2000/svg"><path d="M4 6.75A.75.75 0 014.75 6h20.5a.75.75 0 010 1.5H4.75A.75.75 0 014 6.75zm0 8a.75.75 0 01.75-.75h20.5a.75.75 0 010 1.5H4.75a.75.75 0 01-.75-.75zm.75 7.75a.75.75 0 000 1.5h20.5a.75.75 0 000-1.5H4.75z"></path></symbol>
  <symbol id="icon_shop_search" xmlns="http://www.w3.org/2000/svg"><path d="M14.334 5.5a8.834 8.834 0 100 17.669 8.834 8.834 0 000-17.669zM4 14.334C4 8.627 8.627 4 14.334 4 20.042 4 24.67 8.627 24.67 14.334c0 2.61-.967 4.992-2.562 6.811l3.666 3.57a.75.75 0 01-1.047 1.074l-3.687-3.59a10.293 10.293 0 01-6.705 2.47C8.627 24.669 4 20.042 4 14.334zm9.495-5.12a.75.75 0 01-.475.948 4.527 4.527 0 00-2.858 2.858.75.75 0 01-1.423-.473 6.027 6.027 0 013.808-3.808.75.75 0 01.948.475z"></path></symbol>
  <symbol id="icon_site_phone" xmlns="http://www.w3.org/2000/svg"><path d="M25.847 20.975c-.055-.657-.44-1.167-.764-1.498a10.075 10.075 0 00-.655-.594c-.376-.318-.831-.68-1.268-1.01a20.598 20.598 0 00-1.098-.778 6.807 6.807 0 00-.463-.28 1.853 1.853 0 00-.477-.192c-.888-.184-1.602.232-2.044.49l-.096.055c-.497.285-.71.357-.98.263-2.648-1.085-4.498-2.935-5.585-5.582-.093-.27-.02-.483.265-.98l.04-.071.015-.025c.258-.442.674-1.157.49-2.044a1.845 1.845 0 00-.192-.478 6.694 6.694 0 00-.28-.463c-.214-.328-.49-.714-.779-1.097-.568-.753-1.23-1.559-1.601-1.922a.758.758 0 00-.029-.026c-.334-.32-.832-.684-1.47-.739a.756.756 0 00-.029-.002c-.52-.024-1.024.156-1.447.376a6.74 6.74 0 00-1.213.838c-.694.588-1.296 1.277-1.536 1.658-.94 1.306-.785 2.926-.029 4.596.997 2.431 3.313 5.391 5.888 7.949 2.575 2.557 5.523 4.827 7.865 5.805 1.697.786 3.298.89 4.595-.021a5.36 5.36 0 00.67-.527c.283-.251.615-.577.933-.944.316-.365.633-.787.87-1.23.234-.435.425-.953.406-1.492l-.001-.02-.001-.015zM5.917 7.679c.113-.187.6-.778 1.24-1.319.311-.264.633-.494.935-.651.301-.157.525-.211.67-.209.142.017.332.116.563.341a.75.75 0 00.02.02c.294.293.884 1.004 1.433 1.733.277.368.532.724.72 1.013.095.146.168.266.217.357.03.054.043.084.048.095.05.286-.072.52-.383 1.063l-.001.003c-.278.484-.724 1.262-.368 2.247l.011.028c1.24 3.034 3.394 5.187 6.43 6.426a.125.125 0 00.027.01c.984.358 1.763-.088 2.247-.365l.002-.001c.542-.31.777-.433 1.063-.383.011.005.041.019.095.048.092.05.212.122.358.216.29.19.646.444 1.013.72.747.564 1.475 1.17 1.753 1.454.224.23.323.419.34.557 0 .163-.062.4-.228.71a5.45 5.45 0 01-.682.957c-.27.312-.556.592-.798.808a6.332 6.332 0 01-.416.34.356.356 0 01-.04.026.738.738 0 00-.063.041c-.689.494-1.672.571-3.13-.106l-.012-.006-.015-.007c-2.08-.864-4.87-2.979-7.399-5.49-2.53-2.513-4.681-5.31-5.561-7.466l-.003-.007a.726.726 0 00-.01-.02c-.667-1.467-.61-2.45-.113-3.127a.75.75 0 00.037-.056z"></path></symbol>
</svg>
